<svg xmlns="http://www.w3.org/2000/svg">
<path d="M400.5,400.5 L400.5,225.5" stroke="antiquewhite" stroke_width="4"/>
<path d="M400.5,225.5 L575.5,225.5" stroke="antiquewhite" stroke_width="4"/>
<path d="M575.5,225.5 L575.5,400.5" stroke="antiquewhite" stroke_width="4"/>
<path d="M575.5,400.5 L400.5,400.5" stroke="antiquewhite" stroke_width="4"/>
<path d="M400.5,400.5 L434.18774,209.4473" stroke="antiquewhite" stroke_width="4"/>
<path d="M434.18774,209.4473 L625.2405,243.13504" stroke="antiquewhite" stroke_width="4"/>
<path d="M625.2405,243.13504 L591.55273,434.18774" stroke="antiquewhite" stroke_width="4"/>
<path d="M591.55273,434.18774 L400.5,400.5" stroke="antiquewhite" stroke_width="4"/>
<path d="M400.5,400.5 L406.31433,384.52524" stroke="cyan" stroke_width="4"/>
<path d="M406.31433,384.52524 L422.28912,390.33957" stroke="cyan" stroke_width="4"/>
<path d="M422.28912,390.33957 L416.47476,406.31433" stroke="cyan" stroke_width="4"/>
<path d="M416.47476,406.31433 L400.5,400.5" stroke="cyan" stroke_width="4"/>
<path d="M400.5,400.5 L402.5,397.0359" stroke="cyan" stroke_width="4"/>
<path d="M402.5,397.0359 L405.9641,399.0359" stroke="cyan" stroke_width="4"/>
<path d="M405.9641,399.0359 L403.9641,402.5" stroke="cyan" stroke_width="4"/>
<path d="M403.9641,402.5 L400.5,400.5" stroke="cyan" stroke_width="4"/>
<path d="M400.5,400.5 L478.2773,307.80862" stroke="cyan" stroke_width="4"/>
<path d="M478.2773,307.80862 L570.9687,385.58594" stroke="cyan" stroke_width="4"/>
<path d="M570.9687,385.58594 L493.19138,478.2773" stroke="cyan" stroke_width="4"/>
<path d="M493.19138,478.2773 L400.5,400.5" stroke="cyan" stroke_width="4"/>
<path d="M400.5,400.5 L460.25146,350.36258" stroke="antiquewhite" stroke_width="4"/>
<path d="M460.25146,350.36258 L510.3889,410.11404" stroke="antiquewhite" stroke_width="4"/>
<path d="M510.3889,410.11404 L450.63742,460.25146" stroke="antiquewhite" stroke_width="4"/>
<path d="M450.63742,460.25146 L400.5,400.5" stroke="antiquewhite" stroke_width="4"/>
<path d="M400.5,400.5 L482.7724,353" stroke="antiquewhite" stroke_width="4"/>
<path d="M482.7724,353 L530.2724,435.2724" stroke="antiquewhite" stroke_width="4"/>
<path d="M530.2724,435.2724 L448,482.7724" stroke="antiquewhite" stroke_width="4"/>
<path d="M448,482.7724 L400.5,400.5" stroke="antiquewhite" stroke_width="4"/>
<path d="M400.5,400.5 L544.27295,348.17093" stroke="cyan" stroke_width="4"/>
<path d="M544.27295,348.17093 L596.60205,491.94388" stroke="cyan" stroke_width="4"/>
<path d="M596.60205,491.94388 L452.82907,544.27295" stroke="cyan" stroke_width="4"/>
<path d="M452.82907,544.27295 L400.5,400.5" stroke="cyan" stroke_width="4"/>
<path d="M400.5,400.5 L531.47943,377.4048" stroke="cyan" stroke_width="4"/>
<path d="M531.47943,377.4048 L554.57465,508.38422" stroke="cyan" stroke_width="4"/>
<path d="M554.57465,508.38422 L423.5952,531.47943" stroke="cyan" stroke_width="4"/>
<path d="M423.5952,531.47943 L400.5,400.5" stroke="cyan" stroke_width="4"/>
<path d="M400.5,400.5 L499.5,400.5" stroke="cyan" stroke_width="4"/>
<path d="M499.5,400.5 L499.5,499.5" stroke="cyan" stroke_width="4"/>
<path d="M499.5,499.5 L400.5,499.5" stroke="cyan" stroke_width="4"/>
<path d="M400.5,499.5 L400.5,400.5" stroke="cyan" stroke_width="4"/>
<path d="M400.5,400.5 L456.63403,410.39795" stroke="chocolate" stroke_width="4"/>
<path d="M456.63403,410.39795 L446.73608,466.53198" stroke="chocolate" stroke_width="4"/>
<path d="M446.73608,466.53198 L390.60205,456.63403" stroke="chocolate" stroke_width="4"/>
<path d="M390.60205,456.63403 L400.5,400.5" stroke="chocolate" stroke_width="4"/>
<path d="M400.5,400.5 L477.5548,428.54565" stroke="cyan" stroke_width="4"/>
<path d="M477.5548,428.54565 L449.50916,505.60043" stroke="cyan" stroke_width="4"/>
<path d="M449.50916,505.60043 L372.45435,477.5548" stroke="cyan" stroke_width="4"/>
<path d="M372.45435,477.5548 L400.5,400.5" stroke="cyan" stroke_width="4"/>
<path d="M400.5,400.5 L539.9301,481" stroke="antiquewhite" stroke_width="4"/>
<path d="M539.9301,481 L459.43008,620.4301" stroke="antiquewhite" stroke_width="4"/>
<path d="M459.43008,620.4301 L320,539.9301" stroke="antiquewhite" stroke_width="4"/>
<path d="M320,539.9301 L400.5,400.5" stroke="antiquewhite" stroke_width="4"/>
<path d="M400.5,400.5 L417.35297,414.64133" stroke="aliceblue" stroke_width="4"/>
<path d="M417.35297,414.64133 L403.21164,431.4943" stroke="aliceblue" stroke_width="4"/>
<path d="M403.21164,431.4943 L386.35867,417.35297" stroke="aliceblue" stroke_width="4"/>
<path d="M386.35867,417.35297 L400.5,400.5" stroke="aliceblue" stroke_width="4"/>
<path d="M400.5,400.5 L524.558,548.34656" stroke="aliceblue" stroke_width="4"/>
<path d="M524.558,548.34656 L376.71143,672.4046" stroke="aliceblue" stroke_width="4"/>
<path d="M376.71143,672.4046 L252.65343,524.558" stroke="aliceblue" stroke_width="4"/>
<path d="M252.65343,524.558 L400.5,400.5" stroke="aliceblue" stroke_width="4"/>
<path d="M400.5,400.5 L443,474.11215" stroke="cyan" stroke_width="4"/>
<path d="M443,474.11215 L369.38785,516.6122" stroke="cyan" stroke_width="4"/>
<path d="M369.38785,516.6122 L326.88785,443" stroke="cyan" stroke_width="4"/>
<path d="M326.88785,443 L400.5,400.5" stroke="cyan" stroke_width="4"/>
<path d="M400.5,400.5 L466.16788,580.92096" stroke="aliceblue" stroke_width="4"/>
<path d="M466.16788,580.92096 L285.7469,646.58887" stroke="aliceblue" stroke_width="4"/>
<path d="M285.7469,646.58887 L220.07901,466.16788" stroke="aliceblue" stroke_width="4"/>
<path d="M220.07901,466.16788 L400.5,400.5" stroke="aliceblue" stroke_width="4"/>
<path d="M400.5,400.5 L415.95468,488.1479" stroke="aliceblue" stroke_width="4"/>
<path d="M415.95468,488.1479 L328.3068,503.60257" stroke="aliceblue" stroke_width="4"/>
<path d="M328.3068,503.60257 L312.8521,415.95468" stroke="aliceblue" stroke_width="4"/>
<path d="M312.8521,415.95468 L400.5,400.5" stroke="aliceblue" stroke_width="4"/>
<path d="M400.5,400.5 L400.5,409.5" stroke="cyan" stroke_width="4"/>
<path d="M400.5,409.5 L391.5,409.5" stroke="cyan" stroke_width="4"/>
<path d="M391.5,409.5 L391.5,400.5" stroke="cyan" stroke_width="4"/>
<path d="M391.5,400.5 L400.5,400.5" stroke="cyan" stroke_width="4"/>
<path d="M400.5,400.5 L397.20068,419.21133" stroke="aliceblue" stroke_width="4"/>
<path d="M397.20068,419.21133 L378.48935,415.91202" stroke="aliceblue" stroke_width="4"/>
<path d="M378.48935,415.91202 L381.78867,397.20068" stroke="aliceblue" stroke_width="4"/>
<path d="M381.78867,397.20068 L400.5,400.5" stroke="aliceblue" stroke_width="4"/>
<path d="M400.5,400.5 L358.0895,517.0219" stroke="antiquewhite" stroke_width="4"/>
<path d="M358.0895,517.0219 L241.56761,474.6114" stroke="antiquewhite" stroke_width="4"/>
<path d="M241.56761,474.6114 L283.97812,358.0895" stroke="antiquewhite" stroke_width="4"/>
<path d="M283.97812,358.0895 L400.5,400.5" stroke="antiquewhite" stroke_width="4"/>
<path d="M400.5,400.5 L367,458.5237" stroke="antiquewhite" stroke_width="4"/>
<path d="M367,458.5237 L308.9763,425.0237" stroke="antiquewhite" stroke_width="4"/>
<path d="M308.9763,425.0237 L342.4763,367" stroke="antiquewhite" stroke_width="4"/>
<path d="M342.4763,367 L400.5,400.5" stroke="antiquewhite" stroke_width="4"/>
<path d="M400.5,400.5 L352.29092,457.95334" stroke="cyan" stroke_width="4"/>
<path d="M352.29092,457.95334 L294.8376,409.74426" stroke="cyan" stroke_width="4"/>
<path d="M294.8376,409.74426 L343.04666,352.29092" stroke="cyan" stroke_width="4"/>
<path d="M343.04666,352.29092 L400.5,400.5" stroke="cyan" stroke_width="4"/>
<path d="M400.5,400.5 L319.2993,468.6355" stroke="cyan" stroke_width="4"/>
<path d="M319.2993,468.6355 L251.1638,387.43478" stroke="cyan" stroke_width="4"/>
<path d="M251.1638,387.43478 L332.3645,319.2993" stroke="cyan" stroke_width="4"/>
<path d="M332.3645,319.2993 L400.5,400.5" stroke="cyan" stroke_width="4"/>
<path d="M400.5,400.5 L269.73016,476" stroke="aliceblue" stroke_width="4"/>
<path d="M269.73016,476 L194.23016,345.23016" stroke="aliceblue" stroke_width="4"/>
<path d="M194.23016,345.23016 L325,269.73016" stroke="aliceblue" stroke_width="4"/>
<path d="M325,269.73016 L400.5,400.5" stroke="aliceblue" stroke_width="4"/>
<path d="M400.5,400.5 L297.13382,438.12222" stroke="chocolate" stroke_width="4"/>
<path d="M297.13382,438.12222 L259.5116,334.75604" stroke="chocolate" stroke_width="4"/>
<path d="M259.5116,334.75604 L362.87778,297.13382" stroke="chocolate" stroke_width="4"/>
<path d="M362.87778,297.13382 L400.5,400.5" stroke="chocolate" stroke_width="4"/>
<path d="M400.5,400.5 L309.89767,416.47565" stroke="antiquewhite" stroke_width="4"/>
<path d="M309.89767,416.47565 L293.92206,325.87332" stroke="antiquewhite" stroke_width="4"/>
<path d="M293.92206,325.87332 L384.52435,309.89767" stroke="antiquewhite" stroke_width="4"/>
<path d="M384.52435,309.89767 L400.5,400.5" stroke="antiquewhite" stroke_width="4"/>
<path d="M400.5,400.5 L371.5,400.5" stroke="aliceblue" stroke_width="4"/>
<path d="M371.5,400.5 L371.5,371.5" stroke="aliceblue" stroke_width="4"/>
<path d="M371.5,371.5 L400.5,371.5" stroke="aliceblue" stroke_width="4"/>
<path d="M400.5,371.5 L400.5,400.5" stroke="aliceblue" stroke_width="4"/>
<path d="M400.5,400.5 L246.87,373.4109" stroke="aliceblue" stroke_width="4"/>
<path d="M246.87,373.4109 L273.9591,219.78087" stroke="aliceblue" stroke_width="4"/>
<path d="M273.9591,219.78087 L427.5891,246.87" stroke="aliceblue" stroke_width="4"/>
<path d="M427.5891,246.87 L400.5,400.5" stroke="aliceblue" stroke_width="4"/>
<path d="M400.5,400.5 L329.08337,374.50647" stroke="cyan" stroke_width="4"/>
<path d="M329.08337,374.50647 L355.0769,303.08984" stroke="cyan" stroke_width="4"/>
<path d="M355.0769,303.08984 L426.49353,329.08337" stroke="cyan" stroke_width="4"/>
<path d="M426.49353,329.08337 L400.5,400.5" stroke="cyan" stroke_width="4"/>
<path d="M400.5,400.5 L290.51477,337" stroke="cyan" stroke_width="4"/>
<path d="M290.51477,337 L354.01477,227.01477" stroke="cyan" stroke_width="4"/>
<path d="M354.01477,227.01477 L464,290.51477" stroke="cyan" stroke_width="4"/>
<path d="M464,290.51477 L400.5,400.5" stroke="cyan" stroke_width="4"/>
<path d="M400.5,400.5 L307.04257,322.07993" stroke="antiquewhite" stroke_width="4"/>
<path d="M307.04257,322.07993 L385.46268,228.62248" stroke="antiquewhite" stroke_width="4"/>
<path d="M385.46268,228.62248 L478.92007,307.04257" stroke="antiquewhite" stroke_width="4"/>
<path d="M478.92007,307.04257 L400.5,400.5" stroke="antiquewhite" stroke_width="4"/>
<path d="M400.5,400.5 L323.36548,308.57468" stroke="cyan" stroke_width="4"/>
<path d="M323.36548,308.57468 L415.29083,231.44016" stroke="cyan" stroke_width="4"/>
<path d="M415.29083,231.44016 L492.42532,323.36548" stroke="cyan" stroke_width="4"/>
<path d="M492.42532,323.36548 L400.5,400.5" stroke="cyan" stroke_width="4"/>
<path d="M400.5,400.5 L305,235.08914" stroke="antiquewhite" stroke_width="4"/>
<path d="M305,235.08914 L470.41086,139.58914" stroke="antiquewhite" stroke_width="4"/>
<path d="M470.41086,139.58914 L565.9108,305" stroke="antiquewhite" stroke_width="4"/>
<path d="M565.9108,305 L400.5,400.5" stroke="antiquewhite" stroke_width="4"/>
<path d="M400.5,400.5 L381.00485,346.93753" stroke="cyan" stroke_width="4"/>
<path d="M381.00485,346.93753 L434.56732,327.44238" stroke="cyan" stroke_width="4"/>
<path d="M434.56732,327.44238 L454.06247,381.00485" stroke="cyan" stroke_width="4"/>
<path d="M454.06247,381.00485 L400.5,400.5" stroke="cyan" stroke_width="4"/>
<path d="M400.5,400.5 L384.87167,311.8673" stroke="antiquewhite" stroke_width="4"/>
<path d="M384.87167,311.8673 L473.50436,296.23895" stroke="antiquewhite" stroke_width="4"/>
<path d="M473.50436,296.23895 L489.1327,384.87167" stroke="antiquewhite" stroke_width="4"/>
<path d="M489.1327,384.87167 L400.5,400.5" stroke="antiquewhite" stroke_width="4"/>
</svg>